<?xml version="1.0" encoding="UTF-8"?>
<svg version="1.1" xmlns="http://www.w3.org/2000/svg" width="395" height="427">
<path d="M0 0 C0.6144397 0.26554184 1.22887939 0.53108368 1.86193848 0.80467224 C3.21879596 1.39204519 4.57431066 1.98252725 5.9286499 2.57568359 C8.17665199 3.56023033 10.42794404 4.53688888 12.68017578 5.51171875 C15.20411557 6.60430661 17.72778334 7.69749242 20.25045776 8.79299927 C27.36785949 11.8830158 34.49812362 14.9423217 41.6328125 17.9921875 C42.75976532 18.47399979 43.88671814 18.95581207 45.04782104 19.45222473 C47.37886325 20.44881726 49.7099078 21.4454043 52.04095459 22.44198608 C74.60667269 32.09325285 97.13626068 41.82597927 119.64306641 51.61376953 C128.82893565 55.60787811 138.0146097 59.6014907 147.2265625 63.53515625 C147.9149823 63.82918335 148.6034021 64.12321045 149.31268311 64.42614746 C152.33462566 65.71572539 155.35813252 67.00137396 158.38378906 68.28222656 C159.36831055 68.70084961 160.35283203 69.11947266 161.3671875 69.55078125 C162.19766602 69.90188965 163.02814453 70.25299805 163.88378906 70.61474609 C165.7265625 71.46484375 165.7265625 71.46484375 166.7265625 72.46484375 C166.81934531 73.8106667 166.84052698 75.16144761 166.83465576 76.51045227 C166.83217268 77.87841462 166.83217268 77.87841462 166.82963943 79.27401257 C166.81873842 80.8386095 166.81873842 80.8386095 166.80761719 82.43481445 C166.80354229 83.56725492 166.79946739 84.69969538 166.79526901 85.86645222 C166.78123225 89.27708313 166.76197005 92.68762343 166.74073601 96.09821367 C166.72578807 98.59415515 166.71282084 101.09010079 166.70033264 103.58605576 C166.56476185 130.62532856 166.36493167 157.66418012 166.15150833 184.70293713 C166.05101707 197.48493352 165.9579642 210.26689954 165.8828125 223.04907227 C165.81679378 234.27644968 165.73709889 245.50363216 165.64098239 256.73079377 C165.59076031 262.64921128 165.54710172 268.56750276 165.51987457 274.48607445 C165.49407647 280.04252704 165.44980288 285.59853642 165.39179611 291.15474319 C165.37378806 293.18185045 165.362298 295.2090288 165.35813522 297.23621178 C165.30509017 319.15646188 160.83552144 337.69721666 145.7265625 354.46484375 C145.17355469 355.0990625 144.62054688 355.73328125 144.05078125 356.38671875 C130.76314274 370.72087772 113.42029034 374.72695547 94.7265625 375.46484375 C88.82044728 375.6195536 82.91328912 375.60224893 77.00561523 375.59423828 C75.29315657 375.59559772 73.58069819 375.59738067 71.86824036 375.59954834 C67.25927078 375.60406616 62.65032386 375.60235446 58.04135394 375.59916925 C53.16160704 375.59660675 48.28186186 375.59899475 43.40211487 375.60055542 C35.18726257 375.60236985 26.97241928 375.59999406 18.75756836 375.59521484 C9.37061974 375.58981543 -0.01630699 375.59150607 -9.40325505 375.59704125 C-17.54509842 375.60164373 -25.68693537 375.60218754 -33.82877964 375.59960258 C-38.65377115 375.59807292 -43.47875257 375.59775071 -48.30374336 375.60113907 C-67.6665479 375.61282189 -87.01740577 375.50883067 -106.37475586 375.01904297 C-107.16385381 374.99963095 -107.95295176 374.98021893 -108.76596177 374.96021867 C-117.01296953 374.75192972 -125.25226453 374.45619066 -133.48976135 374.00442505 C-134.17775533 373.96886753 -134.8657493 373.93331001 -135.57459158 373.89667499 C-149.62034199 373.06983625 -160.40694424 368.30414848 -170.109375 358.0703125 C-184.62792013 340.59040347 -189.46597306 318.6175033 -189.39369202 296.38511658 C-189.39454644 295.40962484 -189.39540087 294.43413311 -189.39628118 293.42908102 C-189.3979197 290.18178689 -189.39244141 286.93454518 -189.38696289 283.68725586 C-189.38668064 281.35098268 -189.38683949 279.01470941 -189.3874054 276.67843628 C-189.3876919 270.35065084 -189.38181892 264.02288443 -189.37483144 257.69510341 C-189.36920786 251.74770565 -189.36820752 245.80030861 -189.36717957 239.85290856 C-189.36499454 228.07812362 -189.35834938 216.30334562 -189.34887695 204.52856445 C-189.3396886 193.09497106 -189.33261474 181.66137955 -189.32836914 170.2277832 C-189.32810642 169.52222976 -189.32784369 168.81667632 -189.32757301 168.08974247 C-189.32626791 164.54995331 -189.32500422 161.01016413 -189.32376111 157.47037494 C-189.31340561 128.1351934 -189.29572758 98.80001865 -189.2734375 69.46484375 C-185.6224589 67.87151159 -181.97060604 66.28019269 -178.31860352 64.68920898 C-177.29469765 64.24233482 -176.27079178 63.79546066 -175.21585846 63.33504486 C-167.31230815 59.89360693 -159.36260913 56.59127776 -151.3600769 53.38803101 C-147.43210233 51.81495592 -143.50909615 50.22957086 -139.5859375 48.64453125 C-138.34160194 48.1419706 -138.34160194 48.1419706 -137.0721283 47.6292572 C-126.92875623 43.52605653 -116.82059604 39.33774451 -106.7109375 35.15234375 C-89.34464872 27.96526874 -71.96860245 20.80277865 -54.56176758 13.71435547 C-52.7820247 12.98935379 -51.00232017 12.26425796 -49.22265625 11.5390625 C-48.3674086 11.19057251 -47.51216095 10.84208252 -46.6309967 10.48303223 C-41.31479046 8.31204933 -36.01770521 6.09985361 -30.73046875 3.859375 C-29.45941321 3.32508125 -28.18818015 2.79120956 -26.91674805 2.2578125 C-24.65911277 1.30782289 -22.40617594 0.34654352 -20.15942383 -0.62890625 C-19.18900146 -1.03496094 -18.2185791 -1.44101562 -17.21875 -1.859375 C-16.39906738 -2.21088623 -15.57938477 -2.56239746 -14.73486328 -2.92456055 C-9.41861872 -4.24333933 -4.84269423 -2.11239292 0 0 Z " fill="#0038A7" transform="translate(208.2734375,51.53515625)"/>
<path d="M0 0 C1 3 1 3 0 6 C-0.22718496 8.56634861 -0.41608184 11.11678107 -0.5625 13.6875 C-0.62727539 14.7403418 -0.62727539 14.7403418 -0.69335938 15.81445312 C-0.7991736 17.54275206 -0.90006581 19.2713511 -1 21 C-6.75 19.125 -6.75 19.125 -9 18 C-12.5 17.75 -12.5 17.75 -16 18 C-18.29827312 19.87938172 -18.29827312 19.87938172 -18.3125 22.9375 C-17.95425689 26.44828247 -17.62743912 26.84664228 -15 29 C-13.33378988 29.91489075 -11.64304838 30.78572295 -9.9375 31.625 C0.84655913 37.39454286 8.31588441 46.04479806 15.0625 56.0625 C16.91961399 58.30855971 16.91961399 58.30855971 20.125 58.4375 C23.12331681 58.27180354 23.12331681 58.27180354 25 56 C25.47973279 50.91483243 24.86796819 48.18245361 22 44 C22 43.34 22 42.68 22 42 C22.86882812 41.86722656 23.73765625 41.73445313 24.6328125 41.59765625 C25.78523437 41.42105469 26.93765625 41.24445313 28.125 41.0625 C29.26195312 40.88847656 30.39890625 40.71445313 31.5703125 40.53515625 C34.71732669 40.04410734 37.85930783 39.52981281 41 39 C53.10367612 61.70747306 56.87464432 86.9918599 50 112 C42.40649505 136.11692245 26.55745879 157.81488094 4.14501953 170.00927734 C-18.77899579 181.78202882 -44.91555668 186.60762023 -69.94970703 178.68896484 C-86.91911417 172.98669443 -100.26352087 164.55530588 -113 152 C-113.73089844 151.28199219 -114.46179688 150.56398438 -115.21484375 149.82421875 C-133.12592468 130.99098315 -139.73430026 105.38792939 -139.3125 80.0625 C-138.35575363 54.51737196 -125.40971963 31.61401393 -107.328125 14.0859375 C-79.75200284 -10.62152766 -32.96395743 -20.11580079 0 0 Z " fill="#FDFC00" transform="translate(238,145)"/>
<path d="M0 0 C1.07970062 0.48991676 1.07970062 0.48991676 2.18121338 0.98973083 C3.73725109 1.69715525 5.29107608 2.40946318 6.84286499 3.12615967 C10.21042701 4.68115707 13.58888185 6.21181576 16.9667511 7.7442627 C18.7442259 8.55091731 20.52114534 9.35879669 22.29753113 10.16784668 C31.67042709 14.43326349 41.09973226 18.56665496 50.53515625 22.69140625 C53.9769189 24.19840582 57.41819638 25.70651113 60.859375 27.21484375 C61.7190538 27.59155716 62.5787326 27.96827057 63.46446228 28.35639954 C74.16493728 33.04772603 84.84848828 37.77733029 95.53314209 42.50454712 C107.29179194 47.70638923 119.05923066 52.88753823 130.83691406 58.04614258 C136.78760747 60.65284245 142.73487176 63.26731387 148.68075562 65.88496399 C152.17786632 67.42425032 155.67585135 68.96128323 159.17919922 70.48632812 C162.32338919 71.85681535 165.4614015 73.24038283 168.59765625 74.62890625 C169.4481958 74.99508057 170.29873535 75.36125488 171.17504883 75.73852539 C176.51519905 78.12764379 180.36641431 80.77850195 183.63671875 85.79296875 C185.54560262 91.22594591 185.14806268 97.1232388 182.72265625 102.25390625 C178.45160058 106.86215052 174.37196847 109.66941679 168.02758789 109.99462891 C156.93731824 109.25709617 144.53669338 101.43055497 134.48260498 96.92233276 C129.47984884 94.67941685 124.47201339 92.4478849 119.46484375 90.21484375 C118.44536652 89.75986008 117.42588928 89.3048764 116.3755188 88.83610535 C106.50871448 84.43535692 96.61867814 80.08846257 86.72265625 75.75390625 C83.35401017 74.27770059 79.98553129 72.80111403 76.6171875 71.32421875 C75.78090317 70.95754089 74.94461884 70.59086304 74.08299255 70.21307373 C65.09738244 66.27119671 56.12207932 62.30607677 47.14788818 58.33828735 C44.43943165 57.14183853 41.72987759 55.94790931 39.02001953 54.75463867 C31.2536066 51.33199711 23.49463878 47.89736734 15.77586365 44.36833191 C12.62605585 42.92923604 9.47095983 41.50195947 6.31539917 40.07553101 C4.85525403 39.41113091 3.39789711 38.74056315 1.94363403 38.06338501 C-0.04524491 37.13744356 -2.04257899 36.23277144 -4.04296875 35.33203125 C-5.71407715 34.56294434 -5.71407715 34.56294434 -7.41894531 33.77832031 C-13.4382757 31.98761043 -18.23498503 33.80728909 -23.74609375 36.37890625 C-25.50711426 37.18944458 -25.50711426 37.18944458 -27.30371094 38.01635742 C-27.92741577 38.30819916 -28.55112061 38.60004089 -29.19372559 38.90072632 C-32.64454293 40.51402913 -36.11030124 42.09475991 -39.57421875 43.6796875 C-40.30948792 44.01696365 -41.04475708 44.35423981 -41.80230713 44.70173645 C-50.28581618 48.58349748 -58.84291499 52.29340699 -67.40234375 56.00390625 C-70.71138389 57.44038015 -74.01991684 58.87801739 -77.328125 60.31640625 C-78.16525528 60.6803801 -79.00238556 61.04435394 -79.86488342 61.4193573 C-89.79115942 65.74017766 -99.69045706 70.12192046 -109.58984375 74.50390625 C-123.59764052 80.70344715 -137.60798605 86.8965334 -151.65649414 93.00341797 C-157.73565707 95.64829849 -163.7961098 98.32623012 -169.82421875 101.0859375 C-170.95843262 101.60027344 -172.09264648 102.11460938 -173.26123047 102.64453125 C-175.35175326 103.59462682 -177.43727632 104.55585059 -179.51611328 105.53125 C-185.90578592 108.42084012 -192.99084959 111.2738185 -200.00512695 109.08081055 C-205.00578136 106.88144027 -208.19359543 103.73390288 -210.65234375 98.81640625 C-210.890625 96.4609375 -210.890625 96.4609375 -210.96484375 93.62890625 C-211.00222656 92.70722656 -211.03960937 91.78554687 -211.078125 90.8359375 C-210.52465278 86.91085473 -209.04765745 83.92461727 -206.65234375 80.81640625 C-204.25188001 79.21977174 -202.23987277 78.07940627 -199.6484375 76.93359375 C-198.94963974 76.60495331 -198.25084198 76.27631287 -197.53086853 75.93771362 C-195.24816016 74.87341814 -192.95230786 73.84282269 -190.65234375 72.81640625 C-189.09380981 72.10862509 -187.53537987 71.40061487 -185.97705078 70.69238281 C-180.90609541 68.40429003 -175.81138679 66.17177014 -170.71484375 63.94140625 C-168.82422702 63.11045883 -166.93376804 62.27915242 -165.04345703 61.44750977 C-160.19114032 59.31383052 -155.33678427 57.18483466 -150.48187256 55.05706787 C-146.04396536 53.11118164 -141.60795786 51.1609782 -137.171875 49.2109375 C-126.15396452 44.36881468 -115.13236226 39.53511958 -104.1105957 34.70178223 C-98.16589489 32.09480285 -92.22145639 29.48722645 -86.27734375 26.87890625 C-85.44605957 26.51416199 -84.61477539 26.14941772 -83.75830078 25.77362061 C-67.98338059 18.8508552 -52.22453685 11.89187351 -36.47119141 4.92016602 C-35.59746887 4.53364868 -34.72374634 4.14713135 -33.82354736 3.74890137 C-32.20046286 3.03083776 -30.57752597 2.31244035 -28.95477295 1.59362793 C-27.51712484 0.95764514 -26.07712496 0.32694316 -24.63446045 -0.2975769 C-22.76547265 -1.13302452 -20.93651547 -2.05641579 -19.11181641 -2.98461914 C-12.14349598 -5.39968065 -6.39454725 -3.00030579 0 0 Z " fill="#0037A8" transform="translate(210.65234375,4.18359375)"/>
<path d="M0 0 C8.98986111 1.59869557 15.32569459 7.91365563 21.30859375 14.49609375 C26.25863692 21.82398676 26.41858259 28.53782408 26.25 37.125 C26.24484375 38.18332031 26.2396875 39.24164063 26.234375 40.33203125 C26.18397401 45.35323012 25.85881975 50.04995229 25 55 C23.62325535 80.7799867 29.26241299 100.60805658 46.40527344 120.17773438 C51.70263406 126.04568387 57.19201796 130.90043758 64 135 C65.4540625 135.9590625 65.4540625 135.9590625 66.9375 136.9375 C71.58166617 138.54874132 76.13287756 138.23382973 81 138 C81.41986946 135.71163778 81.41986946 135.71163778 81 133 C78.95488461 130.46665848 78.95488461 130.46665848 76 128 C74.73944409 126.87400733 73.48043754 125.74627869 72.22265625 124.6171875 C71.20884888 123.71033203 71.20884888 123.71033203 70.17456055 122.78515625 C63.19887061 116.47631356 57.65281941 110.83131439 54 102 C53.66871094 101.36835938 53.33742187 100.73671875 52.99609375 100.0859375 C50.65682596 95.49132185 50.29423714 91.03444175 51 86 C52.3125 82.9375 52.3125 82.9375 54 81 C54.99 81 55.98 81 57 81 C58.76953125 82.94921875 58.76953125 82.94921875 60.8125 85.6875 C74.41425904 102.83275938 92.56376248 116.54785841 112.1875 126 C119.84086296 129.75655905 126.21254113 134.7432877 132 141 C132.72123047 141.73089844 132.72123047 141.73089844 133.45703125 142.4765625 C147.54945113 157.53226171 146.38187068 178.82518108 146 198 C125.77419397 198.82701698 105.58458514 199.16185709 85.34326172 199.13037109 C81.57198664 199.12458027 77.80078134 199.12803589 74.02950859 199.13394356 C71.05924971 199.13757839 68.08900711 199.13639881 65.11874771 199.13381577 C63.72754024 199.13315942 62.33633119 199.13392836 60.94512558 199.13629532 C42.81965772 199.16047499 30.89943249 198.31726276 17.28125 185.41015625 C3.35901909 170.70122394 -1.52854914 153.7178661 -1.21875 133.9609375 C-1.20463013 132.32092401 -1.19194701 130.68089765 -1.18054199 129.04086304 C-1.15231199 125.38757469 -1.11433082 121.73454664 -1.06982422 118.0814209 C-0.99127284 111.52348863 -0.94226613 104.96544485 -0.89453125 98.40722656 C-0.7922349 84.76191301 -0.6665014 71.11687502 -0.53643799 57.47180176 C-0.47482164 50.96689019 -0.41524452 44.46195994 -0.35546875 37.95703125 C-0.23891535 25.30466899 -0.12019562 12.65232815 0 0 Z " fill="#1F9AC6" transform="translate(41,210)"/>
<path d="M0 0 C0.13306449 13.04347521 0.26356983 26.0869736 0.39115143 39.13050365 C0.45052045 45.19272774 0.51064444 51.254942 0.57275391 57.31713867 C0.70383104 70.15414472 0.824427 82.99113563 0.92019653 95.82845879 C0.9623067 101.44517466 1.00947653 107.06173158 1.06982422 112.67828369 C1.12602321 117.92959285 1.16757022 123.18081692 1.19798279 128.43233681 C1.21162772 130.35809109 1.23048079 132.28381685 1.25502014 134.20946312 C1.48709361 152.89677977 1.48709361 152.89677977 -2 161 C-2.76376953 162.8253125 -2.76376953 162.8253125 -3.54296875 164.6875 C-10.66070914 179.02442126 -20.46609665 192.24578779 -36 198 C-40.77968106 198.99568499 -45.44359827 199.14241563 -50.3059082 199.12939453 C-51.52447258 199.13202301 -51.52447258 199.13202301 -52.76765442 199.13470459 C-55.44538533 199.13909338 -58.1230497 199.13619253 -60.80078125 199.1328125 C-62.67962151 199.13348711 -64.55846168 199.13445844 -66.43730164 199.13571167 C-70.37886383 199.13718523 -74.32040334 199.1350477 -78.26196289 199.13037109 C-83.26653288 199.12471724 -88.27104871 199.12792718 -93.27561665 199.13394356 C-97.16143688 199.13759553 -101.04724476 199.13638882 -104.93306541 199.13381577 C-106.77508742 199.13315698 -108.61711062 199.13393744 -110.45913124 199.13629532 C-122.01131669 199.14782379 -133.47591711 198.82060449 -145 198 C-145.07214207 194.10801449 -145.129197 190.21648846 -145.16479492 186.32397461 C-145.18689361 184.36622098 -145.2250566 182.40866938 -145.26367188 180.45117188 C-145.38925655 163.99957917 -141.80143001 150.91961245 -130.375 138.75 C-123.05048459 131.84402833 -114.47127029 127.24669018 -105.58569336 122.69848633 C-97.53437163 118.56123619 -90.7791681 114.06557146 -84 108 C-82.74976498 106.92692105 -81.49698556 105.85680212 -80.2421875 104.7890625 C-72.61800423 98.27530553 -65.01809411 91.77772222 -58.5625 84.0625 C-57.716875 83.051875 -56.87125 82.04125 -56 81 C-53 82 -53 82 -51.8125 83.5625 C-49.27622426 91.17132723 -51.72097094 98.03322437 -55 105 C-59.90902811 114.03261173 -65.93770655 119.79179481 -74 126 C-75.42316044 127.21879657 -76.82313352 128.46572791 -78.1875 129.75 C-78.73792969 130.26046875 -79.28835938 130.7709375 -79.85546875 131.296875 C-81.39786945 133.59205147 -81.20690955 135.29638191 -81 138 C-71.32203293 139.01085149 -65.02283265 136.75194271 -57.41259766 130.74755859 C-41.33360624 117.43042663 -27.74936669 99.21547388 -25 78 C-24.33379537 68.34747651 -24.72666728 58.67929777 -25.76171875 49.0703125 C-26.11593117 44.50619835 -26.23659586 39.95138686 -26.3125 35.375 C-26.34214844 34.49134766 -26.37179687 33.60769531 -26.40234375 32.69726562 C-26.48545692 23.43707272 -23.2440436 16.597421 -17 9.85546875 C-12.84385768 5.99967265 -5.95421252 0 0 0 Z " fill="#1F9AC6" transform="translate(351,210)"/>
<path d="M0 0 C5.6467454 3.26256401 9.60793671 9.81547442 11.65234375 15.9609375 C13.09684035 24.43315351 12.5102267 32.57994962 8 40 C3.12214852 46.28267271 -1.98450998 50.80167093 -10 52 C-13.35264912 52.19721465 -16.64775877 52.18895723 -20 52 C-19.34 53.010625 -18.68 54.02125 -18 55.0625 C-15.860443 58.81624235 -15.4143463 61.64942963 -16 66 C-17.125 67.9375 -17.125 67.9375 -19 69 C-21.875 69.5625 -21.875 69.5625 -25 69 C-26.97687298 67.02312702 -28.41482672 65.26386917 -30 63 C-37.15564544 53.21280737 -44.71752169 46.32524178 -55.39086914 40.61303711 C-59.90740618 38.18518765 -59.90740618 38.18518765 -61 36 C-61.44396083 30.78346028 -61.44396083 30.78346028 -59.9375 28.125 C-56.80549187 26.30641463 -54.56908077 26.59043335 -51 27 C-48.20636107 28.12820034 -45.60241188 29.48586945 -43 31 C-43.01160156 29.98679688 -43.02320313 28.97359375 -43.03515625 27.9296875 C-43.04454209 26.57812686 -43.05364143 25.2265642 -43.0625 23.875 C-43.07087891 23.20984375 -43.07925781 22.5446875 -43.08789062 21.859375 C-43.10782292 17.79318646 -42.78890161 13.9879908 -42 10 C-41.01 10 -40.02 10 -39 10 C-38.835 9.29875 -38.67 8.5975 -38.5 7.875 C-35.75693053 2.61745017 -30.73358483 -0.01872557 -25.6875 -2.875 C-16.54031545 -5.66566647 -8.51755074 -4.01321172 0 0 Z " fill="#209AC6" transform="translate(280,135)"/>
<path d="M0 0 C2.866875 -0.061875 5.73375 -0.12375 8.6875 -0.1875 C10.02880981 -0.22846802 10.02880981 -0.22846802 11.3972168 -0.27026367 C16.04674149 -0.31875597 19.30765372 -0.16798941 23 3 C24.207644 7.07579849 24.44610971 9.08838451 22.5625 12.9375 C21.7890625 13.9584375 21.7890625 13.9584375 21 15 C21.66 15 22.32 15 23 15 C25.34168764 18.51253146 25.49623677 19.86469356 25 24 C23.20006226 26.69990662 21.916227 28.5418865 19 30 C17.55151418 30.08342159 16.09929131 30.10732861 14.6484375 30.09765625 C13.88192871 30.09515869 13.11541992 30.09266113 12.32568359 30.09008789 C11.35195801 30.08098389 10.37823242 30.07187988 9.375 30.0625 C6.28125 30.041875 3.1875 30.02125 0 30 C0 20.1 0 10.2 0 0 Z " fill="#CF1724" transform="translate(159,229)"/>
<path d="M0 0 C6.61782406 2.34570133 10.05196551 5.66129092 13.125 11.9140625 C13.82392856 13.58025827 14.42862364 15.28587091 15 17 C16.77082305 18.08977462 16.77082305 18.08977462 19 19 C31.67909715 25.35819431 31.67909715 25.35819431 35 32 C35.4524237 38.22082585 35.4524237 38.22082585 33.875 40.9375 C30.977244 42.57956173 29.27413391 42.5893441 26 42 C24.02312702 40.02312702 22.58517328 38.26386917 21 36 C13.84435456 26.21280737 6.28247831 19.32524178 -4.39086914 13.61303711 C-8.90740618 11.18518765 -8.90740618 11.18518765 -10 9 C-10.44396083 3.78346028 -10.44396083 3.78346028 -8.9375 1.125 C-5.75143863 -0.72497112 -3.64042074 -0.46973171 0 0 Z " fill="#043BA5" transform="translate(229,162)"/>
<path d="M0 0 C0.78503906 0.02707031 1.57007813 0.05414063 2.37890625 0.08203125 C3.05824219 0.11683594 3.73757812 0.15164062 4.4375 0.1875 C5.0975 0.1875 5.7575 0.1875 6.4375 0.1875 C8.4375 0.1875 10.4375 0.1875 12.4375 0.1875 C12.49569473 4.24993957 12.53116215 8.31227146 12.5625 12.375 C12.57925781 13.52548828 12.59601563 14.67597656 12.61328125 15.86132812 C12.61972656 16.97314453 12.62617188 18.08496094 12.6328125 19.23046875 C12.64328613 20.25164795 12.65375977 21.27282715 12.66455078 22.32495117 C12.42457452 25.35045834 11.7989812 27.48395319 10.4375 30.1875 C6.11422898 33.0246466 0.42743563 32.88592269 -4.5625 32.1875 C-7.1875 30.375 -7.1875 30.375 -8.5625 28.1875 C-8.5625 27.1975 -8.5625 26.2075 -8.5625 25.1875 C-6.2525 25.1875 -3.9425 25.1875 -1.5625 25.1875 C-1.5625 25.8475 -1.5625 26.5075 -1.5625 27.1875 C0.7475 27.1875 3.0575 27.1875 5.4375 27.1875 C5.4375 25.5375 5.4375 23.8875 5.4375 22.1875 C4.7775 22.5175 4.1175 22.8475 3.4375 23.1875 C0.125 23.5625 0.125 23.5625 -3.5625 23.1875 C-6.72204305 20.64612841 -8.27790886 19.04127341 -9.5625 15.1875 C-9.85709033 9.8848741 -9.64348656 5.81711029 -6.2734375 1.55859375 C-4.05010159 -0.22312064 -2.81136212 -0.12505235 0 0 Z " fill="#D01C24" transform="translate(204.5625,189.8125)"/>
<path d="M0 0 C2.68125 -0.0825 5.3625 -0.165 8.125 -0.25 C8.95789551 -0.28641602 9.79079102 -0.32283203 10.64892578 -0.36035156 C15.89753078 -0.43799735 18.84890043 0.50842092 23 4 C24.53214888 7.06429776 24.22938548 9.6165642 24 13 C22.59539303 15.87305972 21.25489001 17.74510999 19 20 C16.1796875 20.1953125 16.1796875 20.1953125 12.875 20.125 C11.77929688 20.10695312 10.68359375 20.08890625 9.5546875 20.0703125 C8.71164063 20.04710937 7.86859375 20.02390625 7 20 C7 23.63 7 27.26 7 31 C4.69 31 2.38 31 0 31 C0 20.77 0 10.54 0 0 Z " fill="#D22522" transform="translate(143,182)"/>
<path d="M0 0 C3.85544798 1.99657127 5.59805092 3.39707638 8 7 C8 7.99 8 8.98 8 10 C5.1875 10.1875 5.1875 10.1875 2 10 C1.54625 9.505 1.0925 9.01 0.625 8.5 C-1.76184319 6.29676013 -3.91639162 6.59328433 -7.0625 6.50390625 C-9.15676336 6.86646679 -9.15676336 6.86646679 -10.734375 8.71484375 C-12.21356073 11.38559576 -12.34242426 12.96848436 -12.25 16 C-12.23453125 16.845625 -12.2190625 17.69125 -12.203125 18.5625 C-12.01512019 20.81855769 -11.62330092 22.82850004 -11 25 C-7.98760403 25.5921804 -5.07550533 26.04772336 -2 26 C0.55151968 24.15014823 1.60976715 22.7804657 3 20 C0.69 20 -1.62 20 -4 20 C-4 18.35 -4 16.7 -4 15 C-0.04 15 3.92 15 8 15 C8 20.28 8 25.56 8 31 C6.68 31 5.36 31 4 31 C3.67 30.34 3.34 29.68 3 29 C2.15888672 29.72509766 2.15888672 29.72509766 1.30078125 30.46484375 C-2.59655742 33.06527515 -6.49068782 32.85198986 -11 32 C-15.00906407 29.86720723 -17.3843867 27.2044608 -19.4375 23.1875 C-20.52150661 17.04479588 -21.06350535 12.18646827 -17.8125 6.625 C-13.08420067 0.03164926 -7.87865165 -1.15973752 0 0 Z " fill="#CF1A24" transform="translate(225,228)"/>
<path d="M0 0 C0.94746094 -0.02835938 1.89492187 -0.05671875 2.87109375 -0.0859375 C5.5625 0.375 5.5625 0.375 7.86328125 1.7890625 C10.44569591 5.71908204 10.2375957 9.51498101 10.3125 14.125 C10.34214844 15.01316406 10.37179688 15.90132812 10.40234375 16.81640625 C10.47286918 19.00269449 10.52564637 21.18792768 10.5625 23.375 C7.5625 23.375 4.5625 23.375 1.5625 23.375 C0.9025 23.705 0.2425 24.035 -0.4375 24.375 C-3.97981061 24.76003376 -5.80007342 24.79435959 -8.8125 22.8125 C-11.09320985 19.39143522 -11.15609747 17.39914582 -10.4375 13.375 C-6.12542783 9.27853144 -2.12863347 8.76749196 3.5625 8.375 C3.2325 7.385 2.9025 6.395 2.5625 5.375 C0.9125 5.375 -0.7375 5.375 -2.4375 5.375 C-2.7675 6.035 -3.0975 6.695 -3.4375 7.375 C-5.4175 7.375 -7.3975 7.375 -9.4375 7.375 C-9.125 5 -9.125 5 -8.4375 2.375 C-5.13363642 0.17242428 -3.86932123 0.05250097 0 0 Z " fill="#D01C24" transform="translate(180.4375,189.625)"/>
<path d="M0 0 C2.31 0 4.62 0 7 0 C7 10.23 7 20.46 7 31 C4.69 31 2.38 31 0 31 C0 20.77 0 10.54 0 0 Z " fill="#D32B21" transform="translate(191,229)"/>
<path d="M0 0 C2.31 0 4.62 0 7 0 C7 10.23 7 20.46 7 31 C4.69 31 2.38 31 0 31 C0 20.77 0 10.54 0 0 Z " fill="#D32B21" transform="translate(143,229)"/>
<path d="M0 0 C1.423125 -0.061875 2.84625 -0.12375 4.3125 -0.1875 C5.51326172 -0.23970703 5.51326172 -0.23970703 6.73828125 -0.29296875 C9 0 9 0 10.76953125 1.296875 C12.82047546 4.13564223 12.35543593 6.62335866 12 10 C11.0625 12.4375 11.0625 12.4375 9 14 C5.92091329 14.33302179 3.11443664 14.18054705 0 14 C0 9.38 0 4.76 0 0 Z " fill="#0F0F00" transform="translate(217,278)"/>
<path d="M0 0 C3 -0.375 3 -0.375 6 0 C8.32579101 3.48868651 8.41865457 4.89718519 8 9 C6.5 11.375 6.5 11.375 5 13 C2.625 12.6875 2.625 12.6875 0 12 C-2.31332486 8.53001271 -2.33957563 7.07490752 -2 3 C-1.34 2.01 -0.68 1.02 0 0 Z " fill="#FCF301" transform="translate(203,195)"/>
<path d="M0 0 C4 1 4 1 5.265625 2.62890625 C6.17708333 4.41927083 7.08854167 6.20963542 8 8 C8.33 5.36 8.66 2.72 9 0 C9.99 0 10.98 0 12 0 C12 4.62 12 9.24 12 14 C8 13 8 13 6.515625 11.15234375 C6.09796875 10.42144531 5.6803125 9.69054687 5.25 8.9375 C4.82203125 8.20402344 4.3940625 7.47054688 3.953125 6.71484375 C3.63859375 6.14894531 3.3240625 5.58304687 3 5 C2.67 7.97 2.34 10.94 2 14 C1.34 14 0.68 14 0 14 C0 9.38 0 4.76 0 0 Z " fill="#151500" transform="translate(199,278)"/>
<path d="M0 0 C0.99 0 1.98 0 3 0 C3 3.96 3 7.92 3 12 C4.98 12 6.96 12 9 12 C9 8.04 9 4.08 9 0 C9.99 0 10.98 0 12 0 C12.61785886 9.9543927 12.61785886 9.9543927 10.375 13.75 C8 15 8 15 4.875 14.9375 C2 14 2 14 0 11 C-0.1953125 8.30078125 -0.1953125 8.30078125 -0.125 5.3125 C-0.10695312 4.31863281 -0.08890625 3.32476562 -0.0703125 2.30078125 C-0.04710937 1.54152344 -0.02390625 0.78226562 0 0 Z " fill="#282800" transform="translate(181,278)"/>
<path d="M0 0 C1.62490954 -0.02698189 3.24994633 -0.04638757 4.875 -0.0625 C5.77992188 -0.07410156 6.68484375 -0.08570313 7.6171875 -0.09765625 C10 0 10 0 12 1 C12.125 3.375 12.125 3.375 12 6 C10 8 10 8 7.6171875 8.1953125 C6.71226562 8.17210937 5.80734375 8.14890625 4.875 8.125 C3.50988281 8.09792969 3.50988281 8.09792969 2.1171875 8.0703125 C1.41851562 8.04710937 0.71984375 8.02390625 0 8 C0 5.36 0 2.72 0 0 Z " fill="#FEFB00" transform="translate(165,246)"/>
<path d="M0 0 C1.47906892 -0.02689216 2.95827483 -0.04634621 4.4375 -0.0625 C5.26121094 -0.07410156 6.08492187 -0.08570313 6.93359375 -0.09765625 C9 0 9 0 10 1 C10.125 4 10.125 4 10 7 C9 8 9 8 6.93359375 8.09765625 C6.10988281 8.08605469 5.28617188 8.07445312 4.4375 8.0625 C3.61121094 8.05347656 2.78492188 8.04445312 1.93359375 8.03515625 C1.29550781 8.02355469 0.65742188 8.01195312 0 8 C0 5.36 0 2.72 0 0 Z " fill="#FEFD00" transform="translate(150,188)"/>
<path d="M0 0 C1.64574566 -0.02688151 3.29161413 -0.04634123 4.9375 -0.0625 C5.85402344 -0.07410156 6.77054688 -0.08570313 7.71484375 -0.09765625 C10 0 10 0 11 1 C11.04063832 2.66617115 11.042721 4.33388095 11 6 C8.59454362 7.20272819 7.05003047 7.10071472 4.375 7.0625 C3.14910156 7.04896484 3.14910156 7.04896484 1.8984375 7.03515625 C0.95871094 7.01775391 0.95871094 7.01775391 0 7 C0 4.69 0 2.38 0 0 Z " fill="#FBEC02" transform="translate(165,234)"/>
<path d="M0 0 C3.96 0 7.92 0 12 0 C12 1.98 12 3.96 12 6 C8.04 6 4.08 6 0 6 C0 4.02 0 2.04 0 0 Z " fill="#D32C21" transform="translate(222,199)"/>
<path d="M0 0 C1.99954746 -0.04254356 4.00041636 -0.04080783 6 0 C7 1 7 1 7.1328125 2.8125 C7.13023437 3.534375 7.12765625 4.25625 7.125 5 C7.12757813 5.721875 7.13015625 6.44375 7.1328125 7.1875 C7 9 7 9 6 10 C4.00041636 10.04080783 1.99954746 10.04254356 0 10 C0 6.7 0 3.4 0 0 Z " fill="#F1F100" transform="translate(219,280)"/>
<path d="M0 0 C2.97 0 5.94 0 9 0 C9 0.33 9 0.66 9 1 C6.69 1 4.38 1 2 1 C2 2.65 2 4.3 2 6 C4.31 6 6.62 6 9 6 C9 6.66 9 7.32 9 8 C6.69 8 4.38 8 2 8 C2 9.98 2 11.96 2 14 C1.34 14 0.68 14 0 14 C0 9.38 0 4.76 0 0 Z " fill="#0A0A00" transform="translate(167,278)"/>
<path d="M0 0 C0.99 0 1.98 0 3 0 C3.05410687 1.77049689 3.09284119 3.54146849 3.125 5.3125 C3.14820313 6.29863281 3.17140625 7.28476562 3.1953125 8.30078125 C3 11 3 11 1 14 C-1.625 14.1875 -1.625 14.1875 -4 14 C-3.01 13.34 -2.02 12.68 -1 12 C-0.41518879 9.11404054 -0.41518879 9.11404054 -0.3125 5.875 C-0.24675781 4.77929688 -0.18101562 3.68359375 -0.11328125 2.5546875 C-0.07589844 1.71164062 -0.03851563 0.86859375 0 0 Z " fill="#1E1E00" transform="translate(190,278)"/>
<path d="M0 0 C-0.875 5.875 -0.875 5.875 -2 7 C-3.66617115 7.04063832 -5.33388095 7.042721 -7 7 C-7.625 5.125 -7.625 5.125 -8 3 C-5.48696401 0.48696401 -3.51117809 0 0 0 Z " fill="#FCF202" transform="translate(184,202)"/>
<path d="M0 0 C1.65 0 3.3 0 5 0 C5.33 1.32 5.66 2.64 6 4 C3.27157939 5.36421031 1.39046682 4.87807211 -1.625 4.5625 C-2.62789062 4.46066406 -3.63078125 4.35882813 -4.6640625 4.25390625 C-5.43492187 4.17011719 -6.20578125 4.08632812 -7 4 C-7 3.67 -7 3.34 -7 3 C-5.02 3 -3.04 3 -1 3 C-0.67 2.01 -0.34 1.02 0 0 Z " fill="#F7DB05" transform="translate(178,194)"/>
<path d="M0 0 C1.32 0.33 2.64 0.66 4 1 C4.33 1.99 4.66 2.98 5 4 C4.01 4.495 4.01 4.495 3 5 C2.53348793 7.12576782 2.53348793 7.12576782 2.375 9.5625 C2.30023438 10.38878906 2.22546875 11.21507812 2.1484375 12.06640625 C2.09945312 12.70449219 2.05046875 13.34257812 2 14 C1.34 14 0.68 14 0 14 C0 9.38 0 4.76 0 0 Z " fill="#060600" transform="translate(199,278)"/>
<path d="M0 0 C0.33 0 0.66 0 1 0 C1 3.63 1 7.26 1 11 C0.01 11.33 -0.98 11.66 -2 12 C-3.5625 9.6875 -3.5625 9.6875 -5 7 C-4.67 6.01 -4.34 5.02 -4 4 C-3.01 5.32 -2.02 6.64 -1 8 C-0.67 5.36 -0.34 2.72 0 0 Z " fill="#2C2C00" transform="translate(208,278)"/>
</svg>
